<svg width="46" height="58" viewBox="0 0 46 58" xmlns="http://www.w3.org/2000/svg"><title>827A595E-EE56-477A-87C2-0B017EB68314</title><g fill="none" fill-rule="evenodd"><path d="M0 1.007C0 .45.452 0 .993 0H32l14 14v42.998c0 .554-.455 1.002-1.004 1.002H1.004C.449 58 0 57.55 0 56.993V1.007z" fill="#E7EEF2"/><path d="M11 33.839l7.06 4.761L23 34.342 15.881 29.8 11 33.839zM18.06 21L11 25.76l4.881 4.04L23 25.26 18.06 21zM35 25.76L27.94 21 23 25.26l7.119 4.54L35 25.76zM28 38.5l7-4.661-4.881-4.039L23 34.342l5 4.158zm0 1.298l-5-4.206-5 4.206-2-1.35v2.33L23 45l7-4.222v-2.33l-2 1.35z" fill="#3686E3"/><path fill="#CED7E0" d="M32 0v14.05h14z"/></g></svg>