<svg width="46" height="58" viewBox="0 0 46 58" xmlns="http://www.w3.org/2000/svg" xmlns:xlink="http://www.w3.org/1999/xlink"><title>2A944BB8-650C-4B62-9E49-CD400C7A5D1F</title><defs><path d="M17.586 7.169a3.803 3.803 0 0 1 1.894-.501c2.09 0 3.783 1.672 3.783 3.735 0 .042 0 .085-.002.127 1.555.263 2.739 1.6 2.739 3.211 0 1.61-1.183 2.948-2.737 3.212V17H9.58v-.025c-1.925-.217-3.421-1.83-3.421-3.79 0-1.692 1.116-3.127 2.66-3.626a4.631 4.631 0 0 1-.004-.19c0-2.545 2.09-4.609 4.669-4.609 1.771 0 3.312.974 4.103 2.409z" id="a"/><mask id="b" x="-1.368" y="-1.368" width="22.579" height="14.977"><path fill="#fff" d="M4.789 3.392h22.579v14.977H4.789z"/><use xlink:href="#a"/></mask></defs><g fill="none" fill-rule="evenodd"><path d="M0 1.007C0 .45.452 0 .993 0H32l14 14v42.998c0 .554-.455 1.002-1.004 1.002H1.004C.449 58 0 57.55 0 56.993V1.007z" fill="#E7EEF2"/><path d="M16.309 37.883s-4.967.722-4.967-3.415c0-1.304.61-2.57 2.797-3.395-.262-.797-.66-3.513 1.322-4.794 1.98-1.28 4.197-.186 4.197-.186s1.48-2.785 4.684-2.785c3.701 0 4.604 2.785 4.604 4.588" fill="#2C5DB4"/><g transform="translate(11 23)"><use fill="#2B5DB4" xlink:href="#a"/><use stroke="#E7EDF2" mask="url(#b)" stroke-width="2.737" xlink:href="#a"/></g><path fill="#CED7E0" d="M32 0v14.05h14z"/></g></svg>