<svg xmlns="http://www.w3.org/2000/svg" viewBox="0 0 320 320"><path fill="#00aeff" d="M17.938 220.297l76.29-76.3c4.398-4.398 10.396-6.825 16.89-6.825 7.46 0 14.972 3.239 20.618 8.883l11.495 11.49 5.421-5.416-11.493-11.494c-4.887-4.889-7.977-11.164-8.711-17.668-.843-7.531 1.578-14.772 6.655-19.842l76.299-76.297C215.802 22.425 221.8 20 228.286 20c7.463 0 14.979 3.236 20.621 8.886l42.212 42.209c10.906 10.91 11.832 27.73 2.051 37.512l-76.282 76.285c-4.401 4.399-10.397 6.827-16.895 6.827h-.001c-7.462 0-14.978-3.229-20.622-8.875l-11.493-11.494-5.423 5.424 11.493 11.493c4.888 4.879 7.979 11.156 8.713 17.657.85 7.544-1.579 14.772-6.659 19.854L99.71 302.065c-4.398 4.398-10.398 6.824-16.892 6.825h-.001c-7.458 0-14.972-3.237-20.618-8.873L19.99 257.8c-10.91-10.902-11.827-27.734-2.052-37.503zm180.656-56.674c.216.214.416.374.606.508l73.202-73.205a4.094 4.094 0 0 0-.509-.612l-42.212-42.208a4.01 4.01 0 0 0-.609-.514l-73.199 73.204c.134.191.295.403.509.614l11.495 11.494 25.163-25.162 19.224 19.223-25.164 25.164 11.494 11.494zM39.212 238.577l42.209 42.208c.214.216.421.388.616.514l73.197-73.203a4.149 4.149 0 0 0-.509-.605l-11.494-11.494-25.163 25.165-19.224-19.225 25.163-25.162-11.493-11.495a3.956 3.956 0 0 0-.612-.511l-73.2 73.199c.135.195.293.404.51.609z"/></svg>