<svg width="16" height="13" viewBox="0 0 16 13" xmlns="http://www.w3.org/2000/svg"><title>BADD6237-FF8C-4A52-A80E-923A19931E32</title><path d="M14.115 2.055A3.282 3.282 0 0 0 15.558.24a6.57 6.57 0 0 1-2.085.797 3.281 3.281 0 0 0-5.677 2.245c0 .257.027.507.083.747A9.319 9.319 0 0 1 1.114.6 3.283 3.283 0 0 0 2.13 4.983a3.295 3.295 0 0 1-1.488-.41v.04c0 1.59 1.131 2.917 2.635 3.217a3.212 3.212 0 0 1-.866.116 3.25 3.25 0 0 1-.617-.058 3.283 3.283 0 0 0 3.066 2.278 6.587 6.587 0 0 1-4.077 1.405c-.265 0-.527-.014-.783-.045A9.298 9.298 0 0 0 5.032 13c6.038 0 9.339-5 9.339-9.337 0-.143-.002-.285-.009-.425A6.647 6.647 0 0 0 16 1.538a6.556 6.556 0 0 1-1.885.517z" fill="inherit" fill-rule="evenodd"/></svg>