<svg width="15" height="15" viewBox="0 0 15 15" xmlns="http://www.w3.org/2000/svg"><title>83300A94-CDB3-4E8A-A3B9-F7372CF5A9BF</title><path d="M.378 4.81h2.924v10.189H.378V4.809zm1.388-1.275h-.022C.686 3.535 0 2.756 0 1.77 0 .764.706 0 1.786 0c1.079 0 1.742.762 1.763 1.767 0 .987-.684 1.768-1.783 1.768zM15 15h-3.315V9.726c0-1.38-.519-2.321-1.66-2.321-.871 0-1.356.635-1.582 1.248-.085.22-.072.526-.072.833V15H5.087s.042-9.341 0-10.19h3.284v1.599c.194-.7 1.244-1.697 2.919-1.697 2.078 0 3.71 1.466 3.71 4.621V15z" fill="inherit" fill-rule="evenodd"/></svg>