<svg xmlns="http://www.w3.org/2000/svg" xmlns:xlink="http://www.w3.org/1999/xlink"><defs><path d="M17.586 7.169a3.803 3.803 0 0 1 1.894-.501c2.09 0 3.783 1.672 3.783 3.735 0 .042 0 .085-.002.127 1.555.263 2.739 1.6 2.739 3.211 0 1.61-1.183 2.948-2.737 3.212V17H9.58v-.025c-1.925-.217-3.421-1.83-3.421-3.79 0-1.692 1.116-3.127 2.66-3.626a4.631 4.631 0 0 1-.004-.19c0-2.545 2.09-4.609 4.669-4.609 1.771 0 3.312.974 4.103 2.409z" id="a"/><mask id="b" x="-1.368" y="-1.368" width="22.579" height="14.977"><path fill="#fff" d="M4.789 3.392h22.579v14.977H4.789z"/><use xlink:href="#a"/></mask><rect id="a" y="10" width="10" height="12" rx="4"/><mask id="c" x="0" y="0" width="10" height="12" fill="#fff"><use xlink:href="#a"/></mask><rect id="b" width="10" height="12" rx="4"/><mask id="d" x="0" y="0" width="10" height="12" fill="#fff"><use xlink:href="#b"/></mask></defs><symbol id="attach-db" viewBox="0 0 46 58"><title>827A595E-EE56-477A-87C2-0B017EB68314</title><g fill="none" fill-rule="evenodd"><path d="M0 1.007C0 .45.452 0 .993 0H32l14 14v42.998c0 .554-.455 1.002-1.004 1.002H1.004C.449 58 0 57.55 0 56.993V1.007z" fill="#E7EEF2"/><path d="M11 33.839l7.06 4.761L23 34.342 15.881 29.8 11 33.839zM18.06 21L11 25.76l4.881 4.04L23 25.26 18.06 21zM35 25.76L27.94 21 23 25.26l7.119 4.54L35 25.76zM28 38.5l7-4.661-4.881-4.039L23 34.342l5 4.158zm0 1.298l-5-4.206-5 4.206-2-1.35v2.33L23 45l7-4.222v-2.33l-2 1.35z" fill="#3686E3"/><path fill="#CED7E0" d="M32 0v14.05h14z"/></g></symbol><symbol id="attach-doc" viewBox="0 0 46 58"><title>545E2F5C-A490-4A29-ABF2-D4AF31ADD073</title><g fill="none" fill-rule="evenodd"><path d="M0 1.007C0 .45.452 0 .993 0H32l14 14v42.998c0 .554-.455 1.002-1.004 1.002H1.004C.449 58 0 57.55 0 56.993V1.007z" fill="#1F8ADC"/><text transform="translate(13 22)" font-size="16" font-family="SegoeUI-Bold, Segoe UI" fill="#E7EDF2" font-weight="bold"><tspan x="2" y="17">W</tspan></text><path fill="#156CAE" d="M32 0v14.05h14z"/></g></symbol><symbol id="attach-skydrive" viewBox="0 0 46 58"><title>2A944BB8-650C-4B62-9E49-CD400C7A5D1F</title><g fill="none" fill-rule="evenodd"><path d="M0 1.007C0 .45.452 0 .993 0H32l14 14v42.998c0 .554-.455 1.002-1.004 1.002H1.004C.449 58 0 57.55 0 56.993V1.007z" fill="#E7EEF2"/><path d="M16.309 37.883s-4.967.722-4.967-3.415c0-1.304.61-2.57 2.797-3.395-.262-.797-.66-3.513 1.322-4.794 1.98-1.28 4.197-.186 4.197-.186s1.48-2.785 4.684-2.785c3.701 0 4.604 2.785 4.604 4.588" fill="#2C5DB4"/><g transform="translate(11 23)"><use fill="#2B5DB4" xlink:href="#a"/><use stroke="#E7EDF2" mask="url(#b)" stroke-width="2.737" xlink:href="#a"/></g><path fill="#CED7E0" d="M32 0v14.05h14z"/></g></symbol><symbol id="box" viewBox="0 0 16 14"><title>799DEC0A-5110-4782-AAB2-84EF3BF6F025</title><path d="M1 4h14v9.005a1 1 0 0 1-1.007.995H2.007A1.008 1.008 0 0 1 1 13.005V4zm5 2h4v2H6V6zM0 3h16V.999A.998.998 0 0 0 15 0H1C.449 0 0 .443 0 .999V3z" fill="#fff" fill-rule="evenodd"/></symbol><symbol id="calendar" viewBox="0 0 18 20"><title>ABB0F339-CE1A-482F-AF52-ABBBB25075CF</title><g fill="#A6AEB6" fill-rule="evenodd"><path d="M6 2h6V0h2v2h2.005C17.107 2 18 2.893 18 3.995v14.01A1.995 1.995 0 0 1 16.005 20H1.995A1.995 1.995 0 0 1 0 18.005V3.995C0 2.893.893 2 1.995 2H4V0h2v2zm6 0h2v2h-2V2zM6 2H4v2h2V2zM2 8h14v10H2V8z"/><path d="M10 12h4v4h-4z"/></g></symbol><symbol id="close" viewBox="0 0 13 12"><title>D50C2279-3755-4590-B1A5-615F381B3F8C</title><g stroke="inherit" stroke-width="inherit" fill="none" fill-rule="evenodd"><path d="M.63 11.641L11.818.453M11.818 11.641L.63.453"/></g></symbol><symbol id="link" viewBox="0 0 320 320"><path fill="#00aeff" d="M17.938 220.297l76.29-76.3c4.398-4.398 10.396-6.825 16.89-6.825 7.46 0 14.972 3.239 20.618 8.883l11.495 11.49 5.421-5.416-11.493-11.494c-4.887-4.889-7.977-11.164-8.711-17.668-.843-7.531 1.578-14.772 6.655-19.842l76.299-76.297C215.802 22.425 221.8 20 228.286 20c7.463 0 14.979 3.236 20.621 8.886l42.212 42.209c10.906 10.91 11.832 27.73 2.051 37.512l-76.282 76.285c-4.401 4.399-10.397 6.827-16.895 6.827h-.001c-7.462 0-14.978-3.229-20.622-8.875l-11.493-11.494-5.423 5.424 11.493 11.493c4.888 4.879 7.979 11.156 8.713 17.657.85 7.544-1.579 14.772-6.659 19.854L99.71 302.065c-4.398 4.398-10.398 6.824-16.892 6.825h-.001c-7.458 0-14.972-3.237-20.618-8.873L19.99 257.8c-10.91-10.902-11.827-27.734-2.052-37.503zm180.656-56.674c.216.214.416.374.606.508l73.202-73.205a4.094 4.094 0 0 0-.509-.612l-42.212-42.208a4.01 4.01 0 0 0-.609-.514l-73.199 73.204c.134.191.295.403.509.614l11.495 11.494 25.163-25.162 19.224 19.223-25.164 25.164 11.494 11.494zM39.212 238.577l42.209 42.208c.214.216.421.388.616.514l73.197-73.203a4.149 4.149 0 0 0-.509-.605l-11.494-11.494-25.163 25.165-19.224-19.225 25.163-25.162-11.493-11.495a3.956 3.956 0 0 0-.612-.511l-73.2 73.199c.135.195.293.404.51.609z"/></symbol><symbol id="list--active" viewBox="0 0 16 14"><title>B42178D2-68E6-4E71-8F80-11202101E184</title><path d="M2 4a2 2 0 1 0 0-4 2 2 0 0 0 0 4zm0 5a2 2 0 1 0 0-4 2 2 0 0 0 0 4zm0 5a2 2 0 1 0 0-4 2 2 0 0 0 0 4zM6 1h10v2H6V1zm0 5h10v2H6V6zm0 5h10v2H6v-2z" fill="#ed1e23" fill-rule="evenodd"/></symbol><symbol id="list" viewBox="0 0 16 14"><title>B42178D2-68E6-4E71-8F80-11202101E184</title><path d="M2 4a2 2 0 1 0 0-4 2 2 0 0 0 0 4zm0 5a2 2 0 1 0 0-4 2 2 0 0 0 0 4zm0 5a2 2 0 1 0 0-4 2 2 0 0 0 0 4zM6 1h10v2H6V1zm0 5h10v2H6V6zm0 5h10v2H6v-2z" fill="#A6AEB6" fill-rule="evenodd"/></symbol><symbol id="play"><title>8DB5BF89-9DEC-4E3C-897B-7C80EB760CF7</title><g transform="translate(-1 -1)" fill="none" fill-rule="evenodd"><ellipse fill-opacity=".9" fill="#00ADFF" cx="30.4" cy="30.4" rx="29.4" ry="29.4"/><path d="M40.246 30.47c.472.294.472.768 0 1.062l-14.392 8.937c-.472.293-.854.075-.854-.461V21.994c0-.547.382-.754.854-.46l14.392 8.937z" fill="#FFF"/></g></symbol><symbol id="share" viewBox="0 0 16 16"><title>147E1DC4-3BE3-452A-9B18-63AE01F52C35</title><path d="M4.973 7.87a2.52 2.52 0 0 0 .015-.616l6.875-2.864a2.5 2.5 0 1 0-.862-1.806l-7 2.916a2.5 2.5 0 1 0-.097 4.069l7.123 3.562a2.5 2.5 0 1 0 1.07-1.7L4.972 7.869z" fill="#00aeff" fill-rule="evenodd"/></symbol><symbol id="soc-fb" viewBox="0 0 8 16"><title>2D699028-9887-4CA2-A3CB-AA324B721A95</title><path class="icon" d="M5.32 16H1.773V7.999H0V5.242h1.773V3.587c0-2.249 1-3.587 3.844-3.587h2.367v2.758h-1.48c-1.107 0-1.18.385-1.18 1.104l-.005 1.38H8L7.686 8H5.32V16z" fill="inherit" fill-rule="evenodd"/></symbol><symbol id="soc-in" viewBox="0 0 15 15"><title>83300A94-CDB3-4E8A-A3B9-F7372CF5A9BF</title><path d="M.378 4.81h2.924v10.189H.378V4.809zm1.388-1.275h-.022C.686 3.535 0 2.756 0 1.77 0 .764.706 0 1.786 0c1.079 0 1.742.762 1.763 1.767 0 .987-.684 1.768-1.783 1.768zM15 15h-3.315V9.726c0-1.38-.519-2.321-1.66-2.321-.871 0-1.356.635-1.582 1.248-.085.22-.072.526-.072.833V15H5.087s.042-9.341 0-10.19h3.284v1.599c.194-.7 1.244-1.697 2.919-1.697 2.078 0 3.71 1.466 3.71 4.621V15z" fill="inherit" fill-rule="evenodd"/></symbol><symbol id="soc-tw" viewBox="0 0 16 13"><title>BADD6237-FF8C-4A52-A80E-923A19931E32</title><path d="M14.115 2.055A3.282 3.282 0 0 0 15.558.24a6.57 6.57 0 0 1-2.085.797 3.281 3.281 0 0 0-5.677 2.245c0 .257.027.507.083.747A9.319 9.319 0 0 1 1.114.6 3.283 3.283 0 0 0 2.13 4.983a3.295 3.295 0 0 1-1.488-.41v.04c0 1.59 1.131 2.917 2.635 3.217a3.212 3.212 0 0 1-.866.116 3.25 3.25 0 0 1-.617-.058 3.283 3.283 0 0 0 3.066 2.278 6.587 6.587 0 0 1-4.077 1.405c-.265 0-.527-.014-.783-.045A9.298 9.298 0 0 0 5.032 13c6.038 0 9.339-5 9.339-9.337 0-.143-.002-.285-.009-.425A6.647 6.647 0 0 0 16 1.538a6.556 6.556 0 0 1-1.885.517z" fill="inherit" fill-rule="evenodd"/></symbol><symbol id="soc-vk" viewBox="0 0 20 11"><title>3AB59D9B-3C6A-4851-9933-3CEBD0E31B87</title><path d="M10.98 10.954s.362-.039.547-.23c.169-.175.163-.507.163-.507s-.022-1.545.722-1.773c.734-.225 1.676 1.494 2.675 2.155.755.5 1.329.39 1.329.39l2.671-.035s1.397-.083.735-1.142c-.055-.087-.387-.784-1.986-2.215-1.676-1.499-1.45-1.256.566-3.849 1.23-1.579 1.72-2.542 1.567-2.954-.146-.395-1.05-.29-1.05-.29l-3.007.018s-.223-.03-.388.066c-.162.093-.266.311-.266.311s-.476 1.221-1.11 2.26c-1.34 2.192-1.875 2.308-2.094 2.173-.51-.318-.383-1.275-.383-1.955 0-2.125.335-3.01-.65-3.24-.327-.076-.567-.126-1.404-.135-1.073-.01-1.98.004-2.495.246-.343.162-.607.522-.445.543.198.025.648.117.887.43.308.404.297 1.312.297 1.312s.177 2.5-.413 2.81c-.405.214-.961-.22-2.155-2.21C4.68 2.115 4.22.99 4.22.99S4.13.779 3.97.665a1.259 1.259 0 0 0-.462-.179L.652.504S.222.515.065.696c-.14.159-.01.49-.01.49s2.236 5.046 4.77 7.59c2.323 2.33 4.96 2.178 4.96 2.178h1.196z" fill="inherit" fill-rule="evenodd"/></symbol><symbol id="star" viewBox="0 0 15 14"><title>E8637E9C-17D1-4732-A7FC-527D0D00F730</title><path d="M7.44 10.776l-3.297 2.295c-.91.633-1.39.295-1.066-.774L4.24 8.451 1.04 6.024c-.883-.67-.71-1.23.407-1.253l4.017-.081L6.782.895c.364-1.047.95-1.055 1.317 0l1.32 3.795 4.016.081c1.108.023 1.297.578.407 1.253L10.64 8.451l1.164 3.846c.32 1.06-.149 1.412-1.066.774L7.44 10.776z" fill="#fff" fill-rule="evenodd"/></symbol><symbol id="url" viewBox="0 0 20 20"><title>38C8A2E2-955F-4790-A681-D657C1D952F5</title><g transform="rotate(45 8.485 17.071)" fill="none" fill-rule="evenodd"><use stroke="#00AEFF" mask="url(#c)" stroke-width="4.4" xlink:href="#a"/><use stroke="#00AEFF" mask="url(#d)" stroke-width="4.4" xlink:href="#b"/><rect fill="#00AEFF" x="4" y="7" width="2" height="8" rx="1"/></g></symbol></svg>